{"title":"Star Wars 7 The force Awakens (2015) HQ1080p Blu-ray x264 DTS-DD","uid":15506796,"size":20975382014,"categoryP":"video","categoryS":"hd___movies","magnet":"?xt=urn:btih:fadfa43e584d93cee1849d3238c05ac731001764&amp;dn=Star+Wars+7+The+force+Awakens+%282015%29+HQ1080p+Blu-ray+x264+DTS-DD&amp;tr=udp%3A%2F%2Ftracker.leechers-paradise.org%3A6969&amp;tr=udp%3A%2F%2Fzer0day.ch%3A1337&amp;tr=udp%3A%2F%2Fopen.demonii.com%3A1337&amp;tr=udp%3A%2F%2Ftracker.coppersurfer.tk%3A6969&amp;tr=udp%3A%2F%2Fexodus.desync.com%3A6969","seeders":3,"leechers":7,"uploader":"SaM","files":3,"time":1470598485,"description":"HQ 1080p Blu-ray Rip x264\r\n\r\nDual Real DTS HD Master Audio 7.1 for both Hindi &amp; English\r\n\r\n\r\nArabic, English, French, Hindi and Hindi Forced Subtitles\r\n \nhttp://extraimago.com/image/wTZ6 \nhttp://extraimago.com/image/wTZx \nhttp://extraimago.com/image/wTZt \nhttp://extraimago.com/image/wTZo \nhttp://extraimago.com/image/wTZk \nhttp://extraimago.com/image/wTZH \nhttp://extraimago.com/image/wTZF \nhttp://extraimago.com/image/wTZD \nhttp://extraimago.com/image/wTZ5 \nhttp://extraimago.com/image/wTZg \nhttp://extraimago.com/image/wTZX \nhttp://extraimago.com/image/wTZP \nhttp://extraimago.com/image/wTZG \nhttp://extraimago.com/image/wTZr \nhttp://extraimago.com/image/wTZp\r\n\r\n\r\nSpecs:\r\nSource: FRENCH BD50 @ DDR\r\n\r\nFormat : Matroska\r\nFile size : 19.3 GiB\r\nDuration : 2h 18mn\r\nOverall bit rate : 20.0 Mbps\r\nEncoded date : UTC 2016-08-03 19:36:23\r\n\r\nVideo\r\nFormat : AVC\r\nFormat/Info : Advanced Video Codec\r\nFormat profile :   \r\nFormat settings, CABAC : Yes\r\nFormat settings, ReFrames : 5 frames\r\nCodec ID : V_MPEG4/ISO/AVC\r\nDuration : 2h 18mn\r\nBit rate : 9 699 Kbps\r\nWidth : 1 920 pixels\r\nHeight : 800 pixels\r\nDisplay aspect ratio : 2.40:1\r\nFrame rate mode : Constant\r\nFrame rate : 23.976 (24000/1001) fps\r\ncolor space : YUV\r\nChroma subsampling : 4:2:0\r\nBit depth : 8 bits\r\nScan type : Progressive\r\nBits/(Pixel*Frame) : 0.263\r\nStream size : 9.36 GiB (48%)\r\ncolor primaries : BT.709\r\nTransfer characteristics : BT.709\r\nMatrix coefficients : BT.709\r\n\r\nAudio #1\r\nFormat : DTS\r\nFormat/Info : Digital Theater Systems\r\nFormat profile : MA / Core\r\nMode : 16\r\nFormat settings, Endianness : Big\r\nCodec ID : A_DTS\r\nDuration : 2h 18mn\r\nBit rate mode : Variable / Constant\r\nBit rate : 5 137 Kbps / 1 509 Kbps\r\nChannel(s) : 8 channels / 6 channels\r\nChannel positions : Front: L C R, Side: L R, Back: L R, LFE / Front: L C R, Side: L R, LFE\r\nSampling rate : 48.0 KHz\r\nFrame rate : 93.750 fps (512 spf)\r\nBit depth : 24 bits\r\nCompression mode : Lossless / Lossy\r\nStream size : 4.96 GiB (26%)\r\nLanguage : Hindi\r\nDefault : Yes\r\nForced : No\r\n\r\n\r\nAudio #2\r\nFormat : DTS\r\nFormat/Info : Digital Theater Systems\r\nFormat profile : MA / Core\r\nMode : 16\r\nFormat settings, Endianness : Big\r\nCodec ID : A_DTS\r\nDuration : 2h 18mn\r\nBit rate mode : Variable / Constant\r\nBit rate : 5 194 Kbps / 1 509 Kbps\r\nChannel(s) : 8 channels / 6 channels\r\nChannel positions : Front: L C R, Side: L R, Back: L R, LFE / Front: L C R, Side: L R, LFE\r\nSampling rate : 48.0 KHz\r\nFrame rate : 93.750 fps (512 spf)\r\nBit depth : 24 bits\r\nCompression mode : Lossless / Lossy\r\nStream size : 5.01 GiB (26%)\r\nLanguage : English\r\nDefault : No\r\nForced : No\r\n\r\n\r\nChapters : YES","torrent":{"xt":"urn:btih:fadfa43e584d93cee1849d3238c05ac731001764","amp;dn":"Star+Wars+7+The+force+Awakens+%282015%29+HQ1080p+Blu-ray+x264+DTS-DD","amp;tr":["udp%3A%2F%2Ftracker.leechers-paradise.org%3A6969","udp%3A%2F%2Fzer0day.ch%3A1337","udp%3A%2F%2Fopen.demonii.com%3A1337","udp%3A%2F%2Ftracker.coppersurfer.tk%3A6969","udp%3A%2F%2Fexodus.desync.com%3A6969"],"infoHash":"fadfa43e584d93cee1849d3238c05ac731001764","infoHashBuffer":{"type":"Buffer","data":[250,223,164,62,88,77,147,206,225,132,157,50,56,192,90,199,49,0,23,100]},"announce":[],"urlList":[]}}